<svg width="1024" height="753" viewBox="0 0 1024 753" fill="none" xmlns="http://www.w3.org/2000/svg">
<g clip-path="url(#clip0_122_130)">
<rect width="1024" height="753" fill="#121214"/>
<g opacity="0.2" filter="url(#filter0_f_122_130)">
<ellipse cx="519.5" cy="33" rx="670.5" ry="350" fill="#35875D"/>
</g>
<path d="M40.0349 269C41.5302 269 42.6622 269.63 43.4308 270.891C44.2134 272.138 44.6047 273.953 44.6047 276.336C44.6047 278.719 44.2134 280.541 43.4308 281.802C42.6622 283.063 41.5302 283.693 40.0349 283.693C38.5536 283.693 37.4216 283.063 36.639 281.802C35.8564 280.541 35.4651 278.719 35.4651 276.336C35.4651 273.967 35.8564 272.152 36.639 270.891C37.4216 269.63 38.5536 269 40.0349 269ZM36.9534 276.336C36.9534 278.026 37.1072 279.35 37.4146 280.306L42.0683 271.099C41.5791 270.448 40.9013 270.122 40.0349 270.122C39.0706 270.122 38.316 270.635 37.771 271.66C37.2259 272.672 36.9534 274.23 36.9534 276.336ZM40.0349 282.55C41.0131 282.55 41.7748 282.044 42.3198 281.033C42.8648 280.008 43.1373 278.442 43.1373 276.336C43.1373 274.549 42.9627 273.163 42.6133 272.18L37.9596 281.469C38.4627 282.19 39.1545 282.55 40.0349 282.55Z" fill="url(#paint0_linear_122_130)" fill-opacity="0.6"/>
<path d="M41.2926 306.135H44.3741V307.236H36.3874V306.135H39.9511V294.455L36.5551 296.471L35.9682 295.536L40.1607 292.959H41.2926V306.135Z" fill="url(#paint1_linear_122_130)" fill-opacity="0.6"/>
<path d="M40.0349 316.502C41.5302 316.502 42.6622 317.133 43.4308 318.393C44.2134 319.64 44.6047 321.455 44.6047 323.838C44.6047 326.221 44.2134 328.043 43.4308 329.304C42.6622 330.565 41.5302 331.195 40.0349 331.195C38.5536 331.195 37.4216 330.565 36.639 329.304C35.8564 328.043 35.4651 326.221 35.4651 323.838C35.4651 321.469 35.8564 319.654 36.639 318.393C37.4216 317.133 38.5536 316.502 40.0349 316.502ZM36.9534 323.838C36.9534 325.529 37.1072 326.852 37.4146 327.808L42.0683 318.601C41.5791 317.95 40.9013 317.624 40.0349 317.624C39.0706 317.624 38.316 318.137 37.771 319.162C37.2259 320.174 36.9534 321.732 36.9534 323.838ZM40.0349 330.052C41.0131 330.052 41.7748 329.546 42.3198 328.535C42.8648 327.51 43.1373 325.944 43.1373 323.838C43.1373 322.051 42.9627 320.665 42.6133 319.682L37.9596 328.971C38.4627 329.692 39.1545 330.052 40.0349 330.052Z" fill="url(#paint2_linear_122_130)" fill-opacity="0.6"/>
<path d="M41.2926 353.637H44.3741V354.738H36.3874V353.637H39.9511V341.957L36.5551 343.973L35.9682 343.038L40.1607 340.461H41.2926V353.637Z" fill="url(#paint3_linear_122_130)" fill-opacity="0.6"/>
<path d="M41.2926 377.388H44.3741V378.489H36.3874V377.388H39.9511V365.708L36.5551 367.724L35.9682 366.789L40.1607 364.212H41.2926V377.388Z" fill="url(#paint4_linear_122_130)" fill-opacity="0.6"/>
<path d="M40.0349 387.755C41.5302 387.755 42.6622 388.386 43.4308 389.646C44.2134 390.893 44.6047 392.708 44.6047 395.091C44.6047 397.474 44.2134 399.296 43.4308 400.557C42.6622 401.818 41.5302 402.448 40.0349 402.448C38.5536 402.448 37.4216 401.818 36.639 400.557C35.8564 399.296 35.4651 397.474 35.4651 395.091C35.4651 392.722 35.8564 390.907 36.639 389.646C37.4216 388.386 38.5536 387.755 40.0349 387.755ZM36.9534 395.091C36.9534 396.782 37.1072 398.105 37.4146 399.061L42.0683 389.854C41.5791 389.203 40.9013 388.878 40.0349 388.878C39.0706 388.878 38.316 389.39 37.771 390.415C37.2259 391.427 36.9534 392.985 36.9534 395.091ZM40.0349 401.305C41.0131 401.305 41.7748 400.8 42.3198 399.788C42.8648 398.763 43.1373 397.197 43.1373 395.091C43.1373 393.304 42.9627 391.919 42.6133 390.935L37.9596 400.225C38.4627 400.945 39.1545 401.305 40.0349 401.305Z" fill="url(#paint5_linear_122_130)" fill-opacity="0.6"/>
<path d="M41.2926 424.89H44.3741V425.992H36.3874V424.89H39.9511V413.21L36.5551 415.226L35.9682 414.291L40.1607 411.714H41.2926V424.89Z" fill="url(#paint6_linear_122_130)" fill-opacity="0.6"/>
<path d="M40.0349 435.257C41.5302 435.257 42.6622 435.888 43.4308 437.149C44.2134 438.396 44.6047 440.211 44.6047 442.594C44.6047 444.977 44.2134 446.798 43.4308 448.059C42.6622 449.32 41.5302 449.95 40.0349 449.95C38.5536 449.95 37.4216 449.32 36.639 448.059C35.8564 446.798 35.4651 444.977 35.4651 442.594C35.4651 440.224 35.8564 438.409 36.639 437.149C37.4216 435.888 38.5536 435.257 40.0349 435.257ZM36.9534 442.594C36.9534 444.284 37.1072 445.607 37.4146 446.563L42.0683 437.356C41.5791 436.705 40.9013 436.38 40.0349 436.38C39.0706 436.38 38.316 436.892 37.771 437.918C37.2259 438.929 36.9534 440.488 36.9534 442.594ZM40.0349 448.807C41.0131 448.807 41.7748 448.302 42.3198 447.29C42.8648 446.265 43.1373 444.699 43.1373 442.594C43.1373 440.806 42.9627 439.421 42.6133 438.437L37.9596 447.727C38.4627 448.447 39.1545 448.807 40.0349 448.807Z" fill="url(#paint7_linear_122_130)" fill-opacity="0.6"/>
<path d="M40.0349 459.008C41.5302 459.008 42.6622 459.639 43.4308 460.9C44.2134 462.147 44.6047 463.962 44.6047 466.345C44.6047 468.728 44.2134 470.549 43.4308 471.81C42.6622 473.071 41.5302 473.701 40.0349 473.701C38.5536 473.701 37.4216 473.071 36.639 471.81C35.8564 470.549 35.4651 468.728 35.4651 466.345C35.4651 463.975 35.8564 462.16 36.639 460.9C37.4216 459.639 38.5536 459.008 40.0349 459.008ZM36.9534 466.345C36.9534 468.035 37.1072 469.358 37.4146 470.314L42.0683 461.107C41.5791 460.456 40.9013 460.131 40.0349 460.131C39.0706 460.131 38.316 460.643 37.771 461.669C37.2259 462.68 36.9534 464.239 36.9534 466.345ZM40.0349 472.558C41.0131 472.558 41.7748 472.053 42.3198 471.041C42.8648 470.016 43.1373 468.451 43.1373 466.345C43.1373 464.557 42.9627 463.172 42.6133 462.188L37.9596 471.478C38.4627 472.198 39.1545 472.558 40.0349 472.558Z" fill="url(#paint8_linear_122_130)" fill-opacity="0.6"/>
<path d="M41.2926 496.143H44.3741V497.245H36.3874V496.143H39.9511V484.464L36.5551 486.48L35.9682 485.544L40.1607 482.967H41.2926V496.143Z" fill="url(#paint9_linear_122_130)" fill-opacity="0.6"/>
<path d="M40.0349 506.511C41.5302 506.511 42.6622 507.141 43.4308 508.402C44.2134 509.649 44.6047 511.464 44.6047 513.847C44.6047 516.23 44.2134 518.052 43.4308 519.312C42.6622 520.573 41.5302 521.204 40.0349 521.204C38.5536 521.204 37.4216 520.573 36.639 519.312C35.8564 518.052 35.4651 516.23 35.4651 513.847C35.4651 511.478 35.8564 509.663 36.639 508.402C37.4216 507.141 38.5536 506.511 40.0349 506.511ZM36.9534 513.847C36.9534 515.537 37.1072 516.86 37.4146 517.816L42.0683 508.61C41.5791 507.958 40.9013 507.633 40.0349 507.633C39.0706 507.633 38.316 508.145 37.771 509.171C37.2259 510.182 36.9534 511.741 36.9534 513.847ZM40.0349 520.061C41.0131 520.061 41.7748 519.555 42.3198 518.543C42.8648 517.518 43.1373 515.953 43.1373 513.847C43.1373 512.059 42.9627 510.674 42.6133 509.69L37.9596 518.98C38.4627 519.7 39.1545 520.061 40.0349 520.061Z" fill="url(#paint10_linear_122_130)" fill-opacity="0.6"/>
<path d="M41.2926 543.645H44.3741V544.747H36.3874V543.645H39.9511V531.966L36.5551 533.982L35.9682 533.046L40.1607 530.469H41.2926V543.645Z" fill="url(#paint11_linear_122_130)" fill-opacity="0.6"/>
<path d="M41.2926 567.396H44.3741V568.498H36.3874V567.396H39.9511V555.717L36.5551 557.733L35.9682 556.798L40.1607 554.221H41.2926V567.396Z" fill="url(#paint12_linear_122_130)" fill-opacity="0.6"/>
<path d="M78.9651 316.502C80.4604 316.502 81.5924 317.133 82.361 318.393C83.1436 319.64 83.5349 321.455 83.5349 323.838C83.5349 326.221 83.1436 328.043 82.361 329.304C81.5924 330.565 80.4604 331.195 78.9651 331.195C77.4838 331.195 76.3518 330.565 75.5692 329.304C74.7866 328.043 74.3953 326.221 74.3953 323.838C74.3953 321.469 74.7866 319.654 75.5692 318.393C76.3518 317.133 77.4838 316.502 78.9651 316.502ZM75.8836 323.838C75.8836 325.529 76.0374 326.852 76.3448 327.808L80.9985 318.601C80.5093 317.95 79.8315 317.624 78.9651 317.624C78.0008 317.624 77.2462 318.137 76.7012 319.162C76.1561 320.174 75.8836 321.732 75.8836 323.838ZM78.9651 330.052C79.9433 330.052 80.705 329.546 81.25 328.535C81.795 327.51 82.0675 325.944 82.0675 323.838C82.0675 322.051 81.8928 320.665 81.5435 319.682L76.8898 328.971C77.3929 329.692 78.0847 330.052 78.9651 330.052Z" fill="url(#paint13_linear_122_130)" fill-opacity="0.6"/>
<path d="M80.2228 353.637H83.3043V354.738H75.3176V353.637H78.8812V341.957L75.4853 343.973L74.8984 343.038L79.0909 340.461H80.2228V353.637Z" fill="url(#paint14_linear_122_130)" fill-opacity="0.6"/>
<path d="M78.9651 364.004C80.4604 364.004 81.5924 364.635 82.361 365.895C83.1436 367.142 83.5349 368.957 83.5349 371.34C83.5349 373.723 83.1436 375.545 82.361 376.806C81.5924 378.067 80.4604 378.697 78.9651 378.697C77.4838 378.697 76.3518 378.067 75.5692 376.806C74.7866 375.545 74.3953 373.723 74.3953 371.34C74.3953 368.971 74.7866 367.156 75.5692 365.895C76.3518 364.635 77.4838 364.004 78.9651 364.004ZM75.8836 371.34C75.8836 373.031 76.0374 374.354 76.3448 375.31L80.9985 366.103C80.5093 365.452 79.8315 365.126 78.9651 365.126C78.0008 365.126 77.2462 365.639 76.7012 366.664C76.1561 367.676 75.8836 369.234 75.8836 371.34ZM78.9651 377.554C79.9433 377.554 80.705 377.049 81.25 376.037C81.795 375.012 82.0675 373.446 82.0675 371.34C82.0675 369.553 81.8928 368.168 81.5435 367.184L76.8898 376.474C77.3929 377.194 78.0847 377.554 78.9651 377.554Z" fill="url(#paint15_linear_122_130)" fill-opacity="0.6"/>
<path d="M78.9651 387.755C80.4604 387.755 81.5924 388.386 82.361 389.646C83.1436 390.893 83.5349 392.708 83.5349 395.091C83.5349 397.474 83.1436 399.296 82.361 400.557C81.5924 401.818 80.4604 402.448 78.9651 402.448C77.4838 402.448 76.3518 401.818 75.5692 400.557C74.7866 399.296 74.3953 397.474 74.3953 395.091C74.3953 392.722 74.7866 390.907 75.5692 389.646C76.3518 388.386 77.4838 387.755 78.9651 387.755ZM75.8836 395.091C75.8836 396.782 76.0374 398.105 76.3448 399.061L80.9985 389.854C80.5093 389.203 79.8315 388.878 78.9651 388.878C78.0008 388.878 77.2462 389.39 76.7012 390.415C76.1561 391.427 75.8836 392.985 75.8836 395.091ZM78.9651 401.305C79.9433 401.305 80.705 400.8 81.25 399.788C81.795 398.763 82.0675 397.197 82.0675 395.091C82.0675 393.304 81.8928 391.919 81.5435 390.935L76.8898 400.225C77.3929 400.945 78.0847 401.305 78.9651 401.305Z" fill="url(#paint16_linear_122_130)" fill-opacity="0.6"/>
<path d="M80.2228 424.89H83.3043V425.992H75.3176V424.89H78.8812V413.21L75.4853 415.226L74.8984 414.291L79.0909 411.714H80.2228V424.89Z" fill="url(#paint17_linear_122_130)" fill-opacity="0.6"/>
<path d="M78.9651 435.257C80.4604 435.257 81.5924 435.888 82.361 437.149C83.1436 438.396 83.5349 440.211 83.5349 442.594C83.5349 444.977 83.1436 446.798 82.361 448.059C81.5924 449.32 80.4604 449.95 78.9651 449.95C77.4838 449.95 76.3518 449.32 75.5692 448.059C74.7866 446.798 74.3953 444.977 74.3953 442.594C74.3953 440.224 74.7866 438.409 75.5692 437.149C76.3518 435.888 77.4838 435.257 78.9651 435.257ZM75.8836 442.594C75.8836 444.284 76.0374 445.607 76.3448 446.563L80.9985 437.356C80.5093 436.705 79.8315 436.38 78.9651 436.38C78.0008 436.38 77.2462 436.892 76.7012 437.918C76.1561 438.929 75.8836 440.488 75.8836 442.594ZM78.9651 448.807C79.9433 448.807 80.705 448.302 81.25 447.29C81.795 446.265 82.0675 444.699 82.0675 442.594C82.0675 440.806 81.8928 439.421 81.5435 438.437L76.8898 447.727C77.3929 448.447 78.0847 448.807 78.9651 448.807Z" fill="url(#paint18_linear_122_130)" fill-opacity="0.6"/>
<path d="M80.2228 472.392H83.3043V473.494H75.3176V472.392H78.8812V460.713L75.4853 462.728L74.8984 461.793L79.0909 459.216H80.2228V472.392Z" fill="url(#paint19_linear_122_130)" fill-opacity="0.6"/>
<path d="M78.9651 482.76C80.4604 482.76 81.5924 483.39 82.361 484.651C83.1436 485.898 83.5349 487.713 83.5349 490.096C83.5349 492.479 83.1436 494.301 82.361 495.561C81.5924 496.822 80.4604 497.453 78.9651 497.453C77.4838 497.453 76.3518 496.822 75.5692 495.561C74.7866 494.301 74.3953 492.479 74.3953 490.096C74.3953 487.726 74.7866 485.911 75.5692 484.651C76.3518 483.39 77.4838 482.76 78.9651 482.76ZM75.8836 490.096C75.8836 491.786 76.0374 493.109 76.3448 494.065L80.9985 484.859C80.5093 484.207 79.8315 483.882 78.9651 483.882C78.0008 483.882 77.2462 484.394 76.7012 485.42C76.1561 486.431 75.8836 487.99 75.8836 490.096ZM78.9651 496.31C79.9433 496.31 80.705 495.804 81.25 494.792C81.795 493.767 82.0675 492.202 82.0675 490.096C82.0675 488.308 81.8928 486.923 81.5435 485.939L76.8898 495.229C77.3929 495.949 78.0847 496.31 78.9651 496.31Z" fill="url(#paint20_linear_122_130)" fill-opacity="0.6"/>
<path d="M78.9651 506.511C80.4604 506.511 81.5924 507.141 82.361 508.402C83.1436 509.649 83.5349 511.464 83.5349 513.847C83.5349 516.23 83.1436 518.052 82.361 519.312C81.5924 520.573 80.4604 521.204 78.9651 521.204C77.4838 521.204 76.3518 520.573 75.5692 519.312C74.7866 518.052 74.3953 516.23 74.3953 513.847C74.3953 511.478 74.7866 509.663 75.5692 508.402C76.3518 507.141 77.4838 506.511 78.9651 506.511ZM75.8836 513.847C75.8836 515.537 76.0374 516.86 76.3448 517.816L80.9985 508.61C80.5093 507.958 79.8315 507.633 78.9651 507.633C78.0008 507.633 77.2462 508.145 76.7012 509.171C76.1561 510.182 75.8836 511.741 75.8836 513.847ZM78.9651 520.061C79.9433 520.061 80.705 519.555 81.25 518.543C81.795 517.518 82.0675 515.953 82.0675 513.847C82.0675 512.059 81.8928 510.674 81.5435 509.69L76.8898 518.98C77.3929 519.7 78.0847 520.061 78.9651 520.061Z" fill="url(#paint21_linear_122_130)" fill-opacity="0.6"/>
<path d="M80.2228 543.645H83.3043V544.747H75.3176V543.645H78.8812V531.966L75.4853 533.982L74.8984 533.046L79.0909 530.469H80.2228V543.645Z" fill="url(#paint22_linear_122_130)" fill-opacity="0.6"/>
<path d="M78.9651 554.013C80.4604 554.013 81.5924 554.643 82.361 555.904C83.1436 557.151 83.5349 558.966 83.5349 561.349C83.5349 563.732 83.1436 565.554 82.361 566.815C81.5924 568.075 80.4604 568.706 78.9651 568.706C77.4838 568.706 76.3518 568.075 75.5692 566.815C74.7866 565.554 74.3953 563.732 74.3953 561.349C74.3953 558.98 74.7866 557.165 75.5692 555.904C76.3518 554.643 77.4838 554.013 78.9651 554.013ZM75.8836 561.349C75.8836 563.039 76.0374 564.362 76.3448 565.318L80.9985 556.112C80.5093 555.461 79.8315 555.135 78.9651 555.135C78.0008 555.135 77.2462 555.648 76.7012 556.673C76.1561 557.684 75.8836 559.243 75.8836 561.349ZM78.9651 567.563C79.9433 567.563 80.705 567.057 81.25 566.046C81.795 565.02 82.0675 563.455 82.0675 561.349C82.0675 559.562 81.8928 558.176 81.5435 557.192L76.8898 566.482C77.3929 567.202 78.0847 567.563 78.9651 567.563Z" fill="url(#paint23_linear_122_130)" fill-opacity="0.6"/>
<path d="M80.2228 591.148H83.3043V592.249H75.3176V591.148H78.8812V579.468L75.4853 581.484L74.8984 580.549L79.0909 577.972H80.2228V591.148Z" fill="url(#paint24_linear_122_130)" fill-opacity="0.6"/>
<path d="M80.2228 614.899H83.3043V616H75.3176V614.899H78.8812V603.219L75.4853 605.235L74.8984 604.3L79.0909 601.723H80.2228V614.899Z" fill="url(#paint25_linear_122_130)" fill-opacity="0.6"/>
<path d="M20.5698 340.253C22.0651 340.253 23.1971 340.884 23.9657 342.144C24.7483 343.391 25.1396 345.206 25.1396 347.589C25.1396 349.972 24.7483 351.794 23.9657 353.055C23.1971 354.316 22.0651 354.946 20.5698 354.946C19.0885 354.946 17.9565 354.316 17.1739 353.055C16.3913 351.794 16 349.972 16 347.589C16 345.22 16.3913 343.405 17.1739 342.144C17.9565 340.884 19.0885 340.253 20.5698 340.253ZM17.4883 347.589C17.4883 349.28 17.6421 350.603 17.9495 351.559L22.6032 342.352C22.114 341.701 21.4363 341.375 20.5698 341.375C19.6055 341.375 18.8509 341.888 18.3059 342.913C17.7608 343.925 17.4883 345.483 17.4883 347.589ZM20.5698 353.803C21.5481 353.803 22.3097 353.297 22.8547 352.286C23.3997 351.261 23.6722 349.695 23.6722 347.589C23.6722 345.802 23.4976 344.417 23.1482 343.433L18.4945 352.722C18.9976 353.443 19.6894 353.803 20.5698 353.803Z" fill="url(#paint26_linear_122_130)" fill-opacity="0.6"/>
<path d="M20.5698 364.004C22.0651 364.004 23.1971 364.635 23.9657 365.895C24.7483 367.142 25.1396 368.957 25.1396 371.34C25.1396 373.723 24.7483 375.545 23.9657 376.806C23.1971 378.067 22.0651 378.697 20.5698 378.697C19.0885 378.697 17.9565 378.067 17.1739 376.806C16.3913 375.545 16 373.723 16 371.34C16 368.971 16.3913 367.156 17.1739 365.895C17.9565 364.635 19.0885 364.004 20.5698 364.004ZM17.4883 371.34C17.4883 373.031 17.6421 374.354 17.9495 375.31L22.6032 366.103C22.114 365.452 21.4363 365.126 20.5698 365.126C19.6055 365.126 18.8509 365.639 18.3059 366.664C17.7608 367.676 17.4883 369.234 17.4883 371.34ZM20.5698 377.554C21.5481 377.554 22.3097 377.049 22.8547 376.037C23.3997 375.012 23.6722 373.446 23.6722 371.34C23.6722 369.553 23.4976 368.168 23.1482 367.184L18.4945 376.474C18.9976 377.194 19.6894 377.554 20.5698 377.554Z" fill="url(#paint27_linear_122_130)" fill-opacity="0.6"/>
<path d="M21.8276 401.139H24.909V402.24H16.9223V401.139H20.486V389.459L17.09 391.475L16.5031 390.54L20.6956 387.963H21.8276V401.139Z" fill="url(#paint28_linear_122_130)" fill-opacity="0.6"/>
<path d="M20.5698 411.506C22.0651 411.506 23.1971 412.137 23.9657 413.398C24.7483 414.644 25.1396 416.459 25.1396 418.842C25.1396 421.225 24.7483 423.047 23.9657 424.308C23.1971 425.569 22.0651 426.199 20.5698 426.199C19.0885 426.199 17.9565 425.569 17.1739 424.308C16.3913 423.047 16 421.225 16 418.842C16 416.473 16.3913 414.658 17.1739 413.398C17.9565 412.137 19.0885 411.506 20.5698 411.506ZM17.4883 418.842C17.4883 420.533 17.6421 421.856 17.9495 422.812L22.6032 413.605C22.114 412.954 21.4363 412.629 20.5698 412.629C19.6055 412.629 18.8509 413.141 18.3059 414.166C17.7608 415.178 17.4883 416.737 17.4883 418.842ZM20.5698 425.056C21.5481 425.056 22.3097 424.551 22.8547 423.539C23.3997 422.514 23.6722 420.948 23.6722 418.842C23.6722 417.055 23.4976 415.67 23.1482 414.686L18.4945 423.976C18.9976 424.696 19.6894 425.056 20.5698 425.056Z" fill="url(#paint29_linear_122_130)" fill-opacity="0.6"/>
<path d="M21.8276 448.641H24.909V449.743H16.9223V448.641H20.486V436.962L17.09 438.977L16.5031 438.042L20.6956 435.465H21.8276V448.641Z" fill="url(#paint30_linear_122_130)" fill-opacity="0.6"/>
<path d="M21.8276 472.392H24.909V473.494H16.9223V472.392H20.486V460.713L17.09 462.728L16.5031 461.793L20.6956 459.216H21.8276V472.392Z" fill="url(#paint31_linear_122_130)" fill-opacity="0.6"/>
<path d="M60.7577 306.135H63.8392V307.236H55.8525V306.135H59.4162V294.455L56.0202 296.471L55.4333 295.536L59.6258 292.959H60.7577V306.135Z" fill="url(#paint32_linear_122_130)" fill-opacity="0.6"/>
<path d="M59.5 316.502C60.9953 316.502 62.1273 317.133 62.8959 318.393C63.6785 319.64 64.0698 321.455 64.0698 323.838C64.0698 326.221 63.6785 328.043 62.8959 329.304C62.1273 330.565 60.9953 331.195 59.5 331.195C58.0187 331.195 56.8867 330.565 56.1041 329.304C55.3215 328.043 54.9302 326.221 54.9302 323.838C54.9302 321.469 55.3215 319.654 56.1041 318.393C56.8867 317.133 58.0187 316.502 59.5 316.502ZM56.4185 323.838C56.4185 325.529 56.5723 326.852 56.8797 327.808L61.5334 318.601C61.0442 317.95 60.3664 317.624 59.5 317.624C58.5357 317.624 57.7811 318.137 57.2361 319.162C56.691 320.174 56.4185 321.732 56.4185 323.838ZM59.5 330.052C60.4782 330.052 61.2399 329.546 61.7849 328.535C62.3299 327.51 62.6024 325.944 62.6024 323.838C62.6024 322.051 62.4277 320.665 62.0784 319.682L57.4247 328.971C57.9278 329.692 58.6196 330.052 59.5 330.052Z" fill="url(#paint33_linear_122_130)" fill-opacity="0.6"/>
<path d="M60.7577 353.637H63.8392V354.738H55.8525V353.637H59.4162V341.957L56.0202 343.973L55.4333 343.038L59.6258 340.461H60.7577V353.637Z" fill="url(#paint34_linear_122_130)" fill-opacity="0.6"/>
<path d="M60.7577 377.388H63.8392V378.489H55.8525V377.388H59.4162V365.708L56.0202 367.724L55.4333 366.789L59.6258 364.212H60.7577V377.388Z" fill="url(#paint35_linear_122_130)" fill-opacity="0.6"/>
<path d="M59.5 387.755C60.9953 387.755 62.1273 388.386 62.8959 389.646C63.6785 390.893 64.0698 392.708 64.0698 395.091C64.0698 397.474 63.6785 399.296 62.8959 400.557C62.1273 401.818 60.9953 402.448 59.5 402.448C58.0187 402.448 56.8867 401.818 56.1041 400.557C55.3215 399.296 54.9302 397.474 54.9302 395.091C54.9302 392.722 55.3215 390.907 56.1041 389.646C56.8867 388.386 58.0187 387.755 59.5 387.755ZM56.4185 395.091C56.4185 396.782 56.5723 398.105 56.8797 399.061L61.5334 389.854C61.0442 389.203 60.3664 388.878 59.5 388.878C58.5357 388.878 57.7811 389.39 57.2361 390.415C56.691 391.427 56.4185 392.985 56.4185 395.091ZM59.5 401.305C60.4782 401.305 61.2399 400.8 61.7849 399.788C62.3299 398.763 62.6024 397.197 62.6024 395.091C62.6024 393.304 62.4277 391.919 62.0784 390.935L57.4247 400.225C57.9278 400.945 58.6196 401.305 59.5 401.305Z" fill="url(#paint36_linear_122_130)" fill-opacity="0.6"/>
<path d="M60.7577 424.89H63.8392V425.992H55.8525V424.89H59.4162V413.21L56.0202 415.226L55.4333 414.291L59.6258 411.714H60.7577V424.89Z" fill="url(#paint37_linear_122_130)" fill-opacity="0.6"/>
<path d="M60.7577 448.641H63.8392V449.743H55.8525V448.641H59.4162V436.962L56.0202 438.977L55.4333 438.042L59.6258 435.465H60.7577V448.641Z" fill="url(#paint38_linear_122_130)" fill-opacity="0.6"/>
<path d="M59.5 459.008C60.9953 459.008 62.1273 459.639 62.8959 460.9C63.6785 462.147 64.0698 463.962 64.0698 466.345C64.0698 468.728 63.6785 470.549 62.8959 471.81C62.1273 473.071 60.9953 473.701 59.5 473.701C58.0187 473.701 56.8867 473.071 56.1041 471.81C55.3215 470.549 54.9302 468.728 54.9302 466.345C54.9302 463.975 55.3215 462.16 56.1041 460.9C56.8867 459.639 58.0187 459.008 59.5 459.008ZM56.4185 466.345C56.4185 468.035 56.5723 469.358 56.8797 470.314L61.5334 461.107C61.0442 460.456 60.3664 460.131 59.5 460.131C58.5357 460.131 57.7811 460.643 57.2361 461.669C56.691 462.68 56.4185 464.239 56.4185 466.345ZM59.5 472.558C60.4782 472.558 61.2399 472.053 61.7849 471.041C62.3299 470.016 62.6024 468.451 62.6024 466.345C62.6024 464.557 62.4277 463.172 62.0784 462.188L57.4247 471.478C57.9278 472.198 58.6196 472.558 59.5 472.558Z" fill="url(#paint39_linear_122_130)" fill-opacity="0.6"/>
<path d="M60.7577 496.143H63.8392V497.245H55.8525V496.143H59.4162V484.464L56.0202 486.48L55.4333 485.544L59.6258 482.967H60.7577V496.143Z" fill="url(#paint40_linear_122_130)" fill-opacity="0.6"/>
<path d="M59.5 506.511C60.9953 506.511 62.1273 507.141 62.8959 508.402C63.6785 509.649 64.0698 511.464 64.0698 513.847C64.0698 516.23 63.6785 518.052 62.8959 519.312C62.1273 520.573 60.9953 521.204 59.5 521.204C58.0187 521.204 56.8867 520.573 56.1041 519.312C55.3215 518.052 54.9302 516.23 54.9302 513.847C54.9302 511.478 55.3215 509.663 56.1041 508.402C56.8867 507.141 58.0187 506.511 59.5 506.511ZM56.4185 513.847C56.4185 515.537 56.5723 516.86 56.8797 517.816L61.5334 508.61C61.0442 507.958 60.3664 507.633 59.5 507.633C58.5357 507.633 57.7811 508.145 57.2361 509.171C56.691 510.182 56.4185 511.741 56.4185 513.847ZM59.5 520.061C60.4782 520.061 61.2399 519.555 61.7849 518.543C62.3299 517.518 62.6024 515.953 62.6024 513.847C62.6024 512.059 62.4277 510.674 62.0784 509.69L57.4247 518.98C57.9278 519.7 58.6196 520.061 59.5 520.061Z" fill="url(#paint41_linear_122_130)" fill-opacity="0.6"/>
<path d="M98.4302 292.751C99.9255 292.751 101.057 293.381 101.826 294.642C102.609 295.889 103 297.704 103 300.087C103 302.47 102.609 304.292 101.826 305.553C101.057 306.814 99.9255 307.444 98.4302 307.444C96.9489 307.444 95.8169 306.814 95.0343 305.553C94.2517 304.292 93.8604 302.47 93.8604 300.087C93.8604 297.718 94.2517 295.903 95.0343 294.642C95.8169 293.381 96.9489 292.751 98.4302 292.751ZM95.3487 300.087C95.3487 301.777 95.5024 303.101 95.8099 304.057L100.464 294.85C99.9744 294.199 99.2966 293.873 98.4302 293.873C97.4659 293.873 96.7113 294.386 96.1663 295.411C95.6212 296.423 95.3487 297.981 95.3487 300.087ZM98.4302 306.301C99.4084 306.301 100.17 305.795 100.715 304.784C101.26 303.759 101.533 302.193 101.533 300.087C101.533 298.3 101.358 296.914 101.009 295.931L96.3549 305.22C96.858 305.941 97.5498 306.301 98.4302 306.301Z" fill="url(#paint42_linear_122_130)" fill-opacity="0.6"/>
<path d="M99.6879 329.886H102.769V330.987H94.7827V329.886H98.3463V318.206L94.9504 320.222L94.3635 319.287L98.556 316.71H99.6879V329.886Z" fill="url(#paint43_linear_122_130)" fill-opacity="0.6"/>
<path d="M99.6879 353.637H102.769V354.738H94.7827V353.637H98.3463V341.957L94.9504 343.973L94.3635 343.038L98.556 340.461H99.6879V353.637Z" fill="url(#paint44_linear_122_130)" fill-opacity="0.6"/>
<path d="M98.4302 364.004C99.9255 364.004 101.057 364.635 101.826 365.895C102.609 367.142 103 368.957 103 371.34C103 373.723 102.609 375.545 101.826 376.806C101.057 378.067 99.9255 378.697 98.4302 378.697C96.9489 378.697 95.8169 378.067 95.0343 376.806C94.2517 375.545 93.8604 373.723 93.8604 371.34C93.8604 368.971 94.2517 367.156 95.0343 365.895C95.8169 364.635 96.9489 364.004 98.4302 364.004ZM95.3487 371.34C95.3487 373.031 95.5024 374.354 95.8099 375.31L100.464 366.103C99.9744 365.452 99.2966 365.126 98.4302 365.126C97.4659 365.126 96.7113 365.639 96.1663 366.664C95.6212 367.676 95.3487 369.234 95.3487 371.34ZM98.4302 377.554C99.4084 377.554 100.17 377.049 100.715 376.037C101.26 375.012 101.533 373.446 101.533 371.34C101.533 369.553 101.358 368.168 101.009 367.184L96.3549 376.474C96.858 377.194 97.5498 377.554 98.4302 377.554Z" fill="url(#paint45_linear_122_130)" fill-opacity="0.6"/>
<path d="M98.4302 387.755C99.9255 387.755 101.057 388.386 101.826 389.646C102.609 390.893 103 392.708 103 395.091C103 397.474 102.609 399.296 101.826 400.557C101.057 401.818 99.9255 402.448 98.4302 402.448C96.9489 402.448 95.8169 401.818 95.0343 400.557C94.2517 399.296 93.8604 397.474 93.8604 395.091C93.8604 392.722 94.2517 390.907 95.0343 389.646C95.8169 388.386 96.9489 387.755 98.4302 387.755ZM95.3487 395.091C95.3487 396.782 95.5024 398.105 95.8099 399.061L100.464 389.854C99.9744 389.203 99.2966 388.878 98.4302 388.878C97.4659 388.878 96.7113 389.39 96.1663 390.415C95.6212 391.427 95.3487 392.985 95.3487 395.091ZM98.4302 401.305C99.4084 401.305 100.17 400.8 100.715 399.788C101.26 398.763 101.533 397.197 101.533 395.091C101.533 393.304 101.358 391.919 101.009 390.935L96.3549 400.225C96.858 400.945 97.5498 401.305 98.4302 401.305Z" fill="url(#paint46_linear_122_130)" fill-opacity="0.6"/>
<g opacity="0.6">
<path d="M926.93 -31C928.356 -31 929.436 -30.395 930.17 -29.1851C930.916 -27.9885 931.29 -26.2468 931.29 -23.9599C931.29 -21.673 930.916 -19.9246 930.17 -18.7147C929.436 -17.5048 928.356 -16.8998 926.93 -16.8998C925.517 -16.8998 924.437 -17.5048 923.69 -18.7147C922.943 -19.9246 922.57 -21.673 922.57 -23.9599C922.57 -26.2335 922.943 -27.9752 923.69 -29.1851C924.437 -30.395 925.517 -31 926.93 -31ZM923.99 -23.9599C923.99 -22.3378 924.137 -21.068 924.43 -20.1506L928.87 -28.9857C928.403 -29.6106 927.756 -29.923 926.93 -29.923C926.01 -29.923 925.29 -29.4311 924.77 -28.4472C924.25 -27.4766 923.99 -25.9808 923.99 -23.9599ZM926.93 -17.9967C927.863 -17.9967 928.59 -18.482 929.11 -19.4526C929.63 -20.4365 929.89 -21.9389 929.89 -23.9599C929.89 -25.675 929.723 -27.0046 929.39 -27.9486L924.95 -19.0338C925.43 -18.3424 926.09 -17.9967 926.93 -17.9967Z" fill="url(#paint47_linear_122_130)"/>
<path d="M928.13 4.63655H931.07V5.69356H923.45V4.63655H926.85V-6.57181L923.61 -4.63727L923.05 -5.53474L927.05 -8.00776H928.13V4.63655Z" fill="url(#paint48_linear_122_130)"/>
<path d="M926.93 14.5856C928.356 14.5856 929.436 15.1906 930.17 16.4005C930.916 17.5971 931.29 19.3389 931.29 21.6257C931.29 23.9126 930.916 25.661 930.17 26.8709C929.436 28.0808 928.356 28.6858 926.93 28.6858C925.517 28.6858 924.437 28.0808 923.69 26.8709C922.943 25.661 922.57 23.9126 922.57 21.6257C922.57 19.3522 922.943 17.6104 923.69 16.4005C924.437 15.1906 925.517 14.5856 926.93 14.5856ZM923.99 21.6257C923.99 23.2478 924.137 24.5176 924.43 25.435L928.87 16.5999C928.403 15.975 927.756 15.6626 926.93 15.6626C926.01 15.6626 925.29 16.1545 924.77 17.1384C924.25 18.109 923.99 19.6048 923.99 21.6257ZM926.93 27.5889C927.863 27.5889 928.59 27.1036 929.11 26.133C929.63 25.1491 929.89 23.6467 929.89 21.6257C929.89 19.9106 929.723 18.581 929.39 17.637L924.95 26.5518C925.43 27.2432 926.09 27.5889 926.93 27.5889Z" fill="url(#paint49_linear_122_130)"/>
<path d="M928.13 50.2221H931.07V51.2792H923.45V50.2221H926.85V39.0138L923.61 40.9483L923.05 40.0509L927.05 37.5778H928.13V50.2221Z" fill="url(#paint50_linear_122_130)"/>
<path d="M928.13 73.015H931.07V74.072H923.45V73.015H926.85V61.8066L923.61 63.7411L923.05 62.8437L927.05 60.3706H928.13V73.015Z" fill="url(#paint51_linear_122_130)"/>
<path d="M926.93 82.964C928.356 82.964 929.436 83.569 930.17 84.7789C930.916 85.9755 931.29 87.7173 931.29 90.0041C931.29 92.291 930.916 94.0394 930.17 95.2493C929.436 96.4593 928.356 97.0642 926.93 97.0642C925.517 97.0642 924.437 96.4593 923.69 95.2493C922.943 94.0394 922.57 92.291 922.57 90.0041C922.57 87.7306 922.943 85.9888 923.69 84.7789C924.437 83.569 925.517 82.964 926.93 82.964ZM923.99 90.0041C923.99 91.6262 924.137 92.896 924.43 93.8134L928.87 84.9783C928.403 84.3534 927.756 84.041 926.93 84.041C926.01 84.041 925.29 84.5329 924.77 85.5168C924.25 86.4874 923.99 87.9832 923.99 90.0041ZM926.93 95.9673C927.863 95.9673 928.59 95.482 929.11 94.5114C929.63 93.5275 929.89 92.0251 929.89 90.0041C929.89 88.289 929.723 86.9594 929.39 86.0154L924.95 94.9302C925.43 95.6216 926.09 95.9673 926.93 95.9673Z" fill="url(#paint52_linear_122_130)"/>
<path d="M928.13 118.601H931.07V119.658H923.45V118.601H926.85V107.392L923.61 109.327L923.05 108.429L927.05 105.956H928.13V118.601Z" fill="url(#paint53_linear_122_130)"/>
<path d="M926.93 128.55C928.356 128.55 929.436 129.155 930.17 130.365C930.916 131.561 931.29 133.303 931.29 135.59C931.29 137.877 930.916 139.625 930.17 140.835C929.436 142.045 928.356 142.65 926.93 142.65C925.517 142.65 924.437 142.045 923.69 140.835C922.943 139.625 922.57 137.877 922.57 135.59C922.57 133.316 922.943 131.574 923.69 130.365C924.437 129.155 925.517 128.55 926.93 128.55ZM923.99 135.59C923.99 137.212 924.137 138.482 924.43 139.399L928.87 130.564C928.403 129.939 927.756 129.627 926.93 129.627C926.01 129.627 925.29 130.119 924.77 131.102C924.25 132.073 923.99 133.569 923.99 135.59ZM926.93 141.553C927.863 141.553 928.59 141.068 929.11 140.097C929.63 139.113 929.89 137.611 929.89 135.59C929.89 133.875 929.723 132.545 929.39 131.601L924.95 140.516C925.43 141.207 926.09 141.553 926.93 141.553Z" fill="url(#paint54_linear_122_130)"/>
<path d="M926.93 151.342C928.356 151.342 929.436 151.947 930.17 153.157C930.916 154.354 931.29 156.096 931.29 158.383C931.29 160.669 930.916 162.418 930.17 163.628C929.436 164.838 928.356 165.443 926.93 165.443C925.517 165.443 924.437 164.838 923.69 163.628C922.943 162.418 922.57 160.669 922.57 158.383C922.57 156.109 922.943 154.367 923.69 153.157C924.437 151.947 925.517 151.342 926.93 151.342ZM923.99 158.383C923.99 160.005 924.137 161.274 924.43 162.192L928.87 153.357C928.403 152.732 927.756 152.419 926.93 152.419C926.01 152.419 925.29 152.911 924.77 153.895C924.25 154.866 923.99 156.362 923.99 158.383ZM926.93 164.346C927.863 164.346 928.59 163.86 929.11 162.89C929.63 161.906 929.89 160.404 929.89 158.383C929.89 156.667 929.723 155.338 929.39 154.394L924.95 163.309C925.43 164 926.09 164.346 926.93 164.346Z" fill="url(#paint55_linear_122_130)"/>
<path d="M928.13 186.979H931.07V188.036H923.45V186.979H926.85V175.771L923.61 177.705L923.05 176.808L927.05 174.335H928.13V186.979Z" fill="url(#paint56_linear_122_130)"/>
<path d="M926.93 196.928C928.356 196.928 929.436 197.533 930.17 198.743C930.916 199.94 931.29 201.681 931.29 203.968C931.29 206.255 930.916 208.003 930.17 209.213C929.436 210.423 928.356 211.028 926.93 211.028C925.517 211.028 924.437 210.423 923.69 209.213C922.943 208.003 922.57 206.255 922.57 203.968C922.57 201.695 922.943 199.953 923.69 198.743C924.437 197.533 925.517 196.928 926.93 196.928ZM923.99 203.968C923.99 205.59 924.137 206.86 924.43 207.777L928.87 198.942C928.403 198.317 927.756 198.005 926.93 198.005C926.01 198.005 925.29 198.497 924.77 199.481C924.25 200.451 923.99 201.947 923.99 203.968ZM926.93 209.931C927.863 209.931 928.59 209.446 929.11 208.475C929.63 207.492 929.89 205.989 929.89 203.968C929.89 202.253 929.723 200.923 929.39 199.979L924.95 208.894C925.43 209.586 926.09 209.931 926.93 209.931Z" fill="url(#paint57_linear_122_130)"/>
<path d="M928.13 232.565H931.07V233.622H923.45V232.565H926.85V221.356L923.61 223.291L923.05 222.393L927.05 219.92H928.13V232.565Z" fill="url(#paint58_linear_122_130)"/>
<path d="M928.13 255.357H931.07V256.414H923.45V255.357H926.85V244.149L923.61 246.084L923.05 245.186L927.05 242.713H928.13V255.357Z" fill="url(#paint59_linear_122_130)"/>
<path d="M964.07 14.5856C965.497 14.5856 966.577 15.1906 967.31 16.4005C968.057 17.5971 968.43 19.3389 968.43 21.6257C968.43 23.9126 968.057 25.661 967.31 26.8709C966.577 28.0808 965.497 28.6858 964.07 28.6858C962.657 28.6858 961.577 28.0808 960.83 26.8709C960.084 25.661 959.71 23.9126 959.71 21.6257C959.71 19.3522 960.084 17.6104 960.83 16.4005C961.577 15.1906 962.657 14.5856 964.07 14.5856ZM961.13 21.6257C961.13 23.2478 961.277 24.5176 961.57 25.435L966.01 16.5999C965.543 15.975 964.897 15.6626 964.07 15.6626C963.15 15.6626 962.43 16.1545 961.91 17.1384C961.39 18.109 961.13 19.6048 961.13 21.6257ZM964.07 27.5889C965.003 27.5889 965.73 27.1036 966.25 26.133C966.77 25.1491 967.03 23.6467 967.03 21.6257C967.03 19.9106 966.863 18.581 966.53 17.637L962.09 26.5518C962.57 27.2432 963.23 27.5889 964.07 27.5889Z" fill="url(#paint60_linear_122_130)"/>
<path d="M965.27 50.2221H968.21V51.2792H960.59V50.2221H963.99V39.0138L960.75 40.9483L960.19 40.0509L964.19 37.5778H965.27V50.2221Z" fill="url(#paint61_linear_122_130)"/>
<path d="M964.07 60.1712C965.497 60.1712 966.577 60.7762 967.31 61.9861C968.057 63.1827 968.43 64.9245 968.43 67.2113C968.43 69.4982 968.057 71.2466 967.31 72.4565C966.577 73.6664 965.497 74.2714 964.07 74.2714C962.657 74.2714 961.577 73.6664 960.83 72.4565C960.084 71.2466 959.71 69.4982 959.71 67.2113C959.71 64.9378 960.084 63.196 960.83 61.9861C961.577 60.7762 962.657 60.1712 964.07 60.1712ZM961.13 67.2113C961.13 68.8334 961.277 70.1032 961.57 71.0206L966.01 62.1855C965.543 61.5606 964.897 61.2482 964.07 61.2482C963.15 61.2482 962.43 61.7401 961.91 62.724C961.39 63.6946 961.13 65.1904 961.13 67.2113ZM964.07 73.1745C965.003 73.1745 965.73 72.6892 966.25 71.7186C966.77 70.7347 967.03 69.2323 967.03 67.2113C967.03 65.4962 966.863 64.1666 966.53 63.2226L962.09 72.1374C962.57 72.8288 963.23 73.1745 964.07 73.1745Z" fill="url(#paint62_linear_122_130)"/>
<path d="M964.07 82.964C965.497 82.964 966.577 83.569 967.31 84.7789C968.057 85.9755 968.43 87.7173 968.43 90.0041C968.43 92.291 968.057 94.0394 967.31 95.2493C966.577 96.4593 965.497 97.0642 964.07 97.0642C962.657 97.0642 961.577 96.4593 960.83 95.2493C960.084 94.0394 959.71 92.291 959.71 90.0041C959.71 87.7306 960.084 85.9888 960.83 84.7789C961.577 83.569 962.657 82.964 964.07 82.964ZM961.13 90.0041C961.13 91.6262 961.277 92.896 961.57 93.8134L966.01 84.9783C965.543 84.3534 964.897 84.041 964.07 84.041C963.15 84.041 962.43 84.5329 961.91 85.5168C961.39 86.4874 961.13 87.9832 961.13 90.0041ZM964.07 95.9673C965.003 95.9673 965.73 95.482 966.25 94.5114C966.77 93.5275 967.03 92.0251 967.03 90.0041C967.03 88.289 966.863 86.9594 966.53 86.0154L962.09 94.9302C962.57 95.6216 963.23 95.9673 964.07 95.9673Z" fill="url(#paint63_linear_122_130)"/>
<path d="M965.27 118.601H968.21V119.658H960.59V118.601H963.99V107.392L960.75 109.327L960.19 108.429L964.19 105.956H965.27V118.601Z" fill="url(#paint64_linear_122_130)"/>
<path d="M964.07 128.55C965.497 128.55 966.577 129.155 967.31 130.365C968.057 131.561 968.43 133.303 968.43 135.59C968.43 137.877 968.057 139.625 967.31 140.835C966.577 142.045 965.497 142.65 964.07 142.65C962.657 142.65 961.577 142.045 960.83 140.835C960.084 139.625 959.71 137.877 959.71 135.59C959.71 133.316 960.084 131.574 960.83 130.365C961.577 129.155 962.657 128.55 964.07 128.55ZM961.13 135.59C961.13 137.212 961.277 138.482 961.57 139.399L966.01 130.564C965.543 129.939 964.897 129.627 964.07 129.627C963.15 129.627 962.43 130.119 961.91 131.102C961.39 132.073 961.13 133.569 961.13 135.59ZM964.07 141.553C965.003 141.553 965.73 141.068 966.25 140.097C966.77 139.113 967.03 137.611 967.03 135.59C967.03 133.875 966.863 132.545 966.53 131.601L962.09 140.516C962.57 141.207 963.23 141.553 964.07 141.553Z" fill="url(#paint65_linear_122_130)"/>
<path d="M965.27 164.186H968.21V165.243H960.59V164.186H963.99V152.978L960.75 154.912L960.19 154.015L964.19 151.542H965.27V164.186Z" fill="url(#paint66_linear_122_130)"/>
<path d="M964.07 174.135C965.497 174.135 966.577 174.74 967.31 175.95C968.057 177.147 968.43 178.888 968.43 181.175C968.43 183.462 968.057 185.211 967.31 186.421C966.577 187.63 965.497 188.235 964.07 188.235C962.657 188.235 961.577 187.63 960.83 186.421C960.084 185.211 959.71 183.462 959.71 181.175C959.71 178.902 960.084 177.16 960.83 175.95C961.577 174.74 962.657 174.135 964.07 174.135ZM961.13 181.175C961.13 182.797 961.277 184.067 961.57 184.985L966.01 176.15C965.543 175.525 964.897 175.212 964.07 175.212C963.15 175.212 962.43 175.704 961.91 176.688C961.39 177.659 961.13 179.154 961.13 181.175ZM964.07 187.139C965.003 187.139 965.73 186.653 966.25 185.683C966.77 184.699 967.03 183.196 967.03 181.175C967.03 179.46 966.863 178.131 966.53 177.187L962.09 186.101C962.57 186.793 963.23 187.139 964.07 187.139Z" fill="url(#paint67_linear_122_130)"/>
<path d="M964.07 196.928C965.497 196.928 966.577 197.533 967.31 198.743C968.057 199.94 968.43 201.681 968.43 203.968C968.43 206.255 968.057 208.003 967.31 209.213C966.577 210.423 965.497 211.028 964.07 211.028C962.657 211.028 961.577 210.423 960.83 209.213C960.084 208.003 959.71 206.255 959.71 203.968C959.71 201.695 960.084 199.953 960.83 198.743C961.577 197.533 962.657 196.928 964.07 196.928ZM961.13 203.968C961.13 205.59 961.277 206.86 961.57 207.777L966.01 198.942C965.543 198.317 964.897 198.005 964.07 198.005C963.15 198.005 962.43 198.497 961.91 199.481C961.39 200.451 961.13 201.947 961.13 203.968ZM964.07 209.931C965.003 209.931 965.73 209.446 966.25 208.475C966.77 207.492 967.03 205.989 967.03 203.968C967.03 202.253 966.863 200.923 966.53 199.979L962.09 208.894C962.57 209.586 963.23 209.931 964.07 209.931Z" fill="url(#paint68_linear_122_130)"/>
<path d="M965.27 232.565H968.21V233.622H960.59V232.565H963.99V221.356L960.75 223.291L960.19 222.393L964.19 219.92H965.27V232.565Z" fill="url(#paint69_linear_122_130)"/>
<path d="M964.07 242.514C965.497 242.514 966.577 243.119 967.31 244.329C968.057 245.525 968.43 247.267 968.43 249.554C968.43 251.841 968.057 253.589 967.31 254.799C966.577 256.009 965.497 256.614 964.07 256.614C962.657 256.614 961.577 256.009 960.83 254.799C960.084 253.589 959.71 251.841 959.71 249.554C959.71 247.28 960.084 245.538 960.83 244.329C961.577 243.119 962.657 242.514 964.07 242.514ZM961.13 249.554C961.13 251.176 961.277 252.446 961.57 253.363L966.01 244.528C965.543 243.903 964.897 243.591 964.07 243.591C963.15 243.591 962.43 244.083 961.91 245.066C961.39 246.037 961.13 247.533 961.13 249.554ZM964.07 255.517C965.003 255.517 965.73 255.032 966.25 254.061C966.77 253.077 967.03 251.575 967.03 249.554C967.03 247.839 966.863 246.509 966.53 245.565L962.09 254.48C962.57 255.171 963.23 255.517 964.07 255.517Z" fill="url(#paint70_linear_122_130)"/>
<path d="M965.27 278.15H968.21V279.207H960.59V278.15H963.99V266.942L960.75 268.876L960.19 267.979L964.19 265.506H965.27V278.15Z" fill="url(#paint71_linear_122_130)"/>
<path d="M965.27 300.943H968.21V302H960.59V300.943H963.99V289.735L960.75 291.669L960.19 290.772L964.19 288.299H965.27V300.943Z" fill="url(#paint72_linear_122_130)"/>
<path d="M908.36 37.3784C909.786 37.3784 910.866 37.9834 911.599 39.1933C912.346 40.3899 912.719 42.1317 912.719 44.4185C912.719 46.7054 912.346 48.4538 911.599 49.6637C910.866 50.8736 909.786 51.4786 908.36 51.4786C906.946 51.4786 905.867 50.8736 905.12 49.6637C904.373 48.4538 904 46.7054 904 44.4185C904 42.145 904.373 40.4032 905.12 39.1933C905.867 37.9834 906.946 37.3784 908.36 37.3784ZM905.42 44.4185C905.42 46.0406 905.567 47.3104 905.86 48.2278L910.3 39.3927C909.833 38.7678 909.186 38.4554 908.36 38.4554C907.44 38.4554 906.72 38.9473 906.2 39.9312C905.68 40.9018 905.42 42.3976 905.42 44.4185ZM908.36 50.3817C909.293 50.3817 910.02 49.8964 910.54 48.9258C911.06 47.9419 911.319 46.4395 911.319 44.4185C911.319 42.7034 911.153 41.3738 910.82 40.4298L906.38 49.3446C906.86 50.036 907.52 50.3817 908.36 50.3817Z" fill="url(#paint73_linear_122_130)"/>
<path d="M908.36 60.1712C909.786 60.1712 910.866 60.7762 911.599 61.9861C912.346 63.1827 912.719 64.9245 912.719 67.2113C912.719 69.4982 912.346 71.2466 911.599 72.4565C910.866 73.6664 909.786 74.2714 908.36 74.2714C906.946 74.2714 905.867 73.6664 905.12 72.4565C904.373 71.2466 904 69.4982 904 67.2113C904 64.9378 904.373 63.196 905.12 61.9861C905.867 60.7762 906.946 60.1712 908.36 60.1712ZM905.42 67.2113C905.42 68.8334 905.567 70.1032 905.86 71.0206L910.3 62.1855C909.833 61.5606 909.186 61.2482 908.36 61.2482C907.44 61.2482 906.72 61.7401 906.2 62.724C905.68 63.6946 905.42 65.1904 905.42 67.2113ZM908.36 73.1745C909.293 73.1745 910.02 72.6892 910.54 71.7186C911.06 70.7347 911.319 69.2323 911.319 67.2113C911.319 65.4962 911.153 64.1666 910.82 63.2226L906.38 72.1374C906.86 72.8288 907.52 73.1745 908.36 73.1745Z" fill="url(#paint74_linear_122_130)"/>
<path d="M909.56 95.8078H912.499V96.8648H904.88V95.8078H908.28V84.5994L905.04 86.5339L904.48 85.6365L908.48 83.1635H909.56V95.8078Z" fill="url(#paint75_linear_122_130)"/>
<path d="M908.36 105.757C909.786 105.757 910.866 106.362 911.599 107.572C912.346 108.768 912.719 110.51 912.719 112.797C912.719 115.084 912.346 116.832 911.599 118.042C910.866 119.252 909.786 119.857 908.36 119.857C906.946 119.857 905.867 119.252 905.12 118.042C904.373 116.832 904 115.084 904 112.797C904 110.523 904.373 108.782 905.12 107.572C905.867 106.362 906.946 105.757 908.36 105.757ZM905.42 112.797C905.42 114.419 905.567 115.689 905.86 116.606L910.3 107.771C909.833 107.146 909.186 106.834 908.36 106.834C907.44 106.834 906.72 107.326 906.2 108.31C905.68 109.28 905.42 110.776 905.42 112.797ZM908.36 118.76C909.293 118.76 910.02 118.275 910.54 117.304C911.06 116.32 911.319 114.818 911.319 112.797C911.319 111.082 911.153 109.752 910.82 108.808L906.38 117.723C906.86 118.414 907.52 118.76 908.36 118.76Z" fill="url(#paint76_linear_122_130)"/>
<path d="M909.56 141.393H912.499V142.45H904.88V141.393H908.28V130.185L905.04 132.12L904.48 131.222L908.48 128.749H909.56V141.393Z" fill="url(#paint77_linear_122_130)"/>
<path d="M909.56 164.186H912.499V165.243H904.88V164.186H908.28V152.978L905.04 154.912L904.48 154.015L908.48 151.542H909.56V164.186Z" fill="url(#paint78_linear_122_130)"/>
<path d="M946.7 4.63655H949.64V5.69356H942.02V4.63655H945.42V-6.57181L942.18 -4.63727L941.62 -5.53474L945.62 -8.00776H946.7V4.63655Z" fill="url(#paint79_linear_122_130)"/>
<path d="M945.5 14.5856C946.927 14.5856 948.006 15.1906 948.74 16.4005C949.486 17.5971 949.86 19.3389 949.86 21.6257C949.86 23.9126 949.486 25.661 948.74 26.8709C948.006 28.0808 946.927 28.6858 945.5 28.6858C944.087 28.6858 943.007 28.0808 942.26 26.8709C941.514 25.661 941.14 23.9126 941.14 21.6257C941.14 19.3522 941.514 17.6104 942.26 16.4005C943.007 15.1906 944.087 14.5856 945.5 14.5856ZM942.56 21.6257C942.56 23.2478 942.707 24.5176 943 25.435L947.44 16.5999C946.973 15.975 946.327 15.6626 945.5 15.6626C944.58 15.6626 943.86 16.1545 943.34 17.1384C942.82 18.109 942.56 19.6048 942.56 21.6257ZM945.5 27.5889C946.433 27.5889 947.16 27.1036 947.68 26.133C948.2 25.1491 948.46 23.6467 948.46 21.6257C948.46 19.9106 948.293 18.581 947.96 17.637L943.52 26.5518C944 27.2432 944.66 27.5889 945.5 27.5889Z" fill="url(#paint80_linear_122_130)"/>
<path d="M946.7 50.2221H949.64V51.2792H942.02V50.2221H945.42V39.0138L942.18 40.9483L941.62 40.0509L945.62 37.5778H946.7V50.2221Z" fill="url(#paint81_linear_122_130)"/>
<path d="M946.7 73.015H949.64V74.072H942.02V73.015H945.42V61.8066L942.18 63.7411L941.62 62.8437L945.62 60.3706H946.7V73.015Z" fill="url(#paint82_linear_122_130)"/>
<path d="M945.5 82.964C946.927 82.964 948.006 83.569 948.74 84.7789C949.486 85.9755 949.86 87.7173 949.86 90.0041C949.86 92.291 949.486 94.0394 948.74 95.2493C948.006 96.4593 946.927 97.0642 945.5 97.0642C944.087 97.0642 943.007 96.4593 942.26 95.2493C941.514 94.0394 941.14 92.291 941.14 90.0041C941.14 87.7306 941.514 85.9888 942.26 84.7789C943.007 83.569 944.087 82.964 945.5 82.964ZM942.56 90.0041C942.56 91.6262 942.707 92.896 943 93.8134L947.44 84.9783C946.973 84.3534 946.327 84.041 945.5 84.041C944.58 84.041 943.86 84.5329 943.34 85.5168C942.82 86.4874 942.56 87.9832 942.56 90.0041ZM945.5 95.9673C946.433 95.9673 947.16 95.482 947.68 94.5114C948.2 93.5275 948.46 92.0251 948.46 90.0041C948.46 88.289 948.293 86.9594 947.96 86.0154L943.52 94.9302C944 95.6216 944.66 95.9673 945.5 95.9673Z" fill="url(#paint83_linear_122_130)"/>
<path d="M946.7 118.601H949.64V119.658H942.02V118.601H945.42V107.392L942.18 109.327L941.62 108.429L945.62 105.956H946.7V118.601Z" fill="url(#paint84_linear_122_130)"/>
<path d="M946.7 141.393H949.64V142.45H942.02V141.393H945.42V130.185L942.18 132.12L941.62 131.222L945.62 128.749H946.7V141.393Z" fill="url(#paint85_linear_122_130)"/>
<path d="M945.5 151.342C946.927 151.342 948.006 151.947 948.74 153.157C949.486 154.354 949.86 156.096 949.86 158.383C949.86 160.669 949.486 162.418 948.74 163.628C948.006 164.838 946.927 165.443 945.5 165.443C944.087 165.443 943.007 164.838 942.26 163.628C941.514 162.418 941.14 160.669 941.14 158.383C941.14 156.109 941.514 154.367 942.26 153.157C943.007 151.947 944.087 151.342 945.5 151.342ZM942.56 158.383C942.56 160.005 942.707 161.274 943 162.192L947.44 153.357C946.973 152.732 946.327 152.419 945.5 152.419C944.58 152.419 943.86 152.911 943.34 153.895C942.82 154.866 942.56 156.362 942.56 158.383ZM945.5 164.346C946.433 164.346 947.16 163.86 947.68 162.89C948.2 161.906 948.46 160.404 948.46 158.383C948.46 156.667 948.293 155.338 947.96 154.394L943.52 163.309C944 164 944.66 164.346 945.5 164.346Z" fill="url(#paint86_linear_122_130)"/>
<path d="M946.7 186.979H949.64V188.036H942.02V186.979H945.42V175.771L942.18 177.705L941.62 176.808L945.62 174.335H946.7V186.979Z" fill="url(#paint87_linear_122_130)"/>
<path d="M945.5 196.928C946.927 196.928 948.006 197.533 948.74 198.743C949.486 199.94 949.86 201.681 949.86 203.968C949.86 206.255 949.486 208.003 948.74 209.213C948.006 210.423 946.927 211.028 945.5 211.028C944.087 211.028 943.007 210.423 942.26 209.213C941.514 208.003 941.14 206.255 941.14 203.968C941.14 201.695 941.514 199.953 942.26 198.743C943.007 197.533 944.087 196.928 945.5 196.928ZM942.56 203.968C942.56 205.59 942.707 206.86 943 207.777L947.44 198.942C946.973 198.317 946.327 198.005 945.5 198.005C944.58 198.005 943.86 198.497 943.34 199.481C942.82 200.451 942.56 201.947 942.56 203.968ZM945.5 209.931C946.433 209.931 947.16 209.446 947.68 208.475C948.2 207.492 948.46 205.989 948.46 203.968C948.46 202.253 948.293 200.923 947.96 199.979L943.52 208.894C944 209.586 944.66 209.931 945.5 209.931Z" fill="url(#paint88_linear_122_130)"/>
<path d="M982.64 -8.2072C984.067 -8.2072 985.147 -7.60224 985.88 -6.39232C986.627 -5.1957 987 -3.45395 987 -1.16707C987 1.11981 986.627 2.86821 985.88 4.07812C985.147 5.28804 984.067 5.893 982.64 5.893C981.227 5.893 980.147 5.28804 979.401 4.07812C978.654 2.86821 978.281 1.11981 978.281 -1.16707C978.281 -3.44065 978.654 -5.1824 979.401 -6.39232C980.147 -7.60224 981.227 -8.2072 982.64 -8.2072ZM979.7 -1.16707C979.7 0.455016 979.847 1.72477 980.14 2.64218L984.58 -6.19288C984.114 -6.81779 983.467 -7.13024 982.64 -7.13024C981.72 -7.13024 981 -6.63829 980.48 -5.6544C979.96 -4.68381 979.7 -3.18803 979.7 -1.16707ZM982.64 4.7961C983.574 4.7961 984.3 4.3108 984.82 3.34021C985.34 2.35632 985.6 0.85389 985.6 -1.16707C985.6 -2.88223 985.433 -4.21181 985.1 -5.15581L980.66 3.75902C981.14 4.4504 981.8 4.7961 982.64 4.7961Z" fill="url(#paint89_linear_122_130)"/>
<path d="M983.84 27.4293H986.78V28.4864H979.161V27.4293H982.56V16.221L979.321 18.1555L978.761 17.2581L982.76 14.785H983.84V27.4293Z" fill="url(#paint90_linear_122_130)"/>
<path d="M983.84 50.2221H986.78V51.2792H979.161V50.2221H982.56V39.0138L979.321 40.9483L978.761 40.0509L982.76 37.5778H983.84V50.2221Z" fill="url(#paint91_linear_122_130)"/>
<path d="M982.64 60.1712C984.067 60.1712 985.147 60.7762 985.88 61.9861C986.627 63.1827 987 64.9245 987 67.2113C987 69.4982 986.627 71.2466 985.88 72.4565C985.147 73.6664 984.067 74.2714 982.64 74.2714C981.227 74.2714 980.147 73.6664 979.401 72.4565C978.654 71.2466 978.281 69.4982 978.281 67.2113C978.281 64.9378 978.654 63.196 979.401 61.9861C980.147 60.7762 981.227 60.1712 982.64 60.1712ZM979.7 67.2113C979.7 68.8334 979.847 70.1032 980.14 71.0206L984.58 62.1855C984.114 61.5606 983.467 61.2482 982.64 61.2482C981.72 61.2482 981 61.7401 980.48 62.724C979.96 63.6946 979.7 65.1904 979.7 67.2113ZM982.64 73.1745C983.574 73.1745 984.3 72.6892 984.82 71.7186C985.34 70.7347 985.6 69.2323 985.6 67.2113C985.6 65.4962 985.433 64.1666 985.1 63.2226L980.66 72.1374C981.14 72.8288 981.8 73.1745 982.64 73.1745Z" fill="url(#paint92_linear_122_130)"/>
<path d="M982.64 82.964C984.067 82.964 985.147 83.569 985.88 84.7789C986.627 85.9755 987 87.7173 987 90.0041C987 92.291 986.627 94.0394 985.88 95.2493C985.147 96.4593 984.067 97.0642 982.64 97.0642C981.227 97.0642 980.147 96.4593 979.401 95.2493C978.654 94.0394 978.281 92.291 978.281 90.0041C978.281 87.7306 978.654 85.9888 979.401 84.7789C980.147 83.569 981.227 82.964 982.64 82.964ZM979.7 90.0041C979.7 91.6262 979.847 92.896 980.14 93.8134L984.58 84.9783C984.114 84.3534 983.467 84.041 982.64 84.041C981.72 84.041 981 84.5329 980.48 85.5168C979.96 86.4874 979.7 87.9832 979.7 90.0041ZM982.64 95.9673C983.574 95.9673 984.3 95.482 984.82 94.5114C985.34 93.5275 985.6 92.0251 985.6 90.0041C985.6 88.289 985.433 86.9594 985.1 86.0154L980.66 94.9302C981.14 95.6216 981.8 95.9673 982.64 95.9673Z" fill="url(#paint93_linear_122_130)"/>
</g>
</g>
<defs>
<filter id="filter0_f_122_130" x="-551.19" y="-717.19" width="2141.38" height="1500.38" filterUnits="userSpaceOnUse" color-interpolation-filters="sRGB">
<feFlood flood-opacity="0" result="BackgroundImageFix"/>
<feBlend mode="normal" in="SourceGraphic" in2="BackgroundImageFix" result="shape"/>
<feGaussianBlur stdDeviation="200.095" result="effect1_foregroundBlur_122_130"/>
</filter>
<linearGradient id="paint0_linear_122_130" x1="59.5" y1="269" x2="59.5" y2="580.381" gradientUnits="userSpaceOnUse">
<stop stop-color="#F7DD43"/>
<stop offset="1" stop-color="#F7DD43" stop-opacity="0"/>
</linearGradient>
<linearGradient id="paint1_linear_122_130" x1="59.5" y1="269" x2="59.5" y2="580.381" gradientUnits="userSpaceOnUse">
<stop stop-color="#F7DD43"/>
<stop offset="1" stop-color="#F7DD43" stop-opacity="0"/>
</linearGradient>
<linearGradient id="paint2_linear_122_130" x1="59.5" y1="269" x2="59.5" y2="580.381" gradientUnits="userSpaceOnUse">
<stop stop-color="#F7DD43"/>
<stop offset="1" stop-color="#F7DD43" stop-opacity="0"/>
</linearGradient>
<linearGradient id="paint3_linear_122_130" x1="59.5" y1="269" x2="59.5" y2="580.381" gradientUnits="userSpaceOnUse">
<stop stop-color="#F7DD43"/>
<stop offset="1" stop-color="#F7DD43" stop-opacity="0"/>
</linearGradient>
<linearGradient id="paint4_linear_122_130" x1="59.5" y1="269" x2="59.5" y2="580.381" gradientUnits="userSpaceOnUse">
<stop stop-color="#F7DD43"/>
<stop offset="1" stop-color="#F7DD43" stop-opacity="0"/>
</linearGradient>
<linearGradient id="paint5_linear_122_130" x1="59.5" y1="269" x2="59.5" y2="580.381" gradientUnits="userSpaceOnUse">
<stop stop-color="#F7DD43"/>
<stop offset="1" stop-color="#F7DD43" stop-opacity="0"/>
</linearGradient>
<linearGradient id="paint6_linear_122_130" x1="59.5" y1="269" x2="59.5" y2="580.381" gradientUnits="userSpaceOnUse">
<stop stop-color="#F7DD43"/>
<stop offset="1" stop-color="#F7DD43" stop-opacity="0"/>
</linearGradient>
<linearGradient id="paint7_linear_122_130" x1="59.5" y1="269" x2="59.5" y2="580.381" gradientUnits="userSpaceOnUse">
<stop stop-color="#F7DD43"/>
<stop offset="1" stop-color="#F7DD43" stop-opacity="0"/>
</linearGradient>
<linearGradient id="paint8_linear_122_130" x1="59.5" y1="269" x2="59.5" y2="580.381" gradientUnits="userSpaceOnUse">
<stop stop-color="#F7DD43"/>
<stop offset="1" stop-color="#F7DD43" stop-opacity="0"/>
</linearGradient>
<linearGradient id="paint9_linear_122_130" x1="59.5" y1="269" x2="59.5" y2="580.381" gradientUnits="userSpaceOnUse">
<stop stop-color="#F7DD43"/>
<stop offset="1" stop-color="#F7DD43" stop-opacity="0"/>
</linearGradient>
<linearGradient id="paint10_linear_122_130" x1="59.5" y1="269" x2="59.5" y2="580.381" gradientUnits="userSpaceOnUse">
<stop stop-color="#F7DD43"/>
<stop offset="1" stop-color="#F7DD43" stop-opacity="0"/>
</linearGradient>
<linearGradient id="paint11_linear_122_130" x1="59.5" y1="269" x2="59.5" y2="580.381" gradientUnits="userSpaceOnUse">
<stop stop-color="#F7DD43"/>
<stop offset="1" stop-color="#F7DD43" stop-opacity="0"/>
</linearGradient>
<linearGradient id="paint12_linear_122_130" x1="59.5" y1="269" x2="59.5" y2="580.381" gradientUnits="userSpaceOnUse">
<stop stop-color="#F7DD43"/>
<stop offset="1" stop-color="#F7DD43" stop-opacity="0"/>
</linearGradient>
<linearGradient id="paint13_linear_122_130" x1="59.5" y1="269" x2="59.5" y2="580.381" gradientUnits="userSpaceOnUse">
<stop stop-color="#F7DD43"/>
<stop offset="1" stop-color="#F7DD43" stop-opacity="0"/>
</linearGradient>
<linearGradient id="paint14_linear_122_130" x1="59.5" y1="269" x2="59.5" y2="580.381" gradientUnits="userSpaceOnUse">
<stop stop-color="#F7DD43"/>
<stop offset="1" stop-color="#F7DD43" stop-opacity="0"/>
</linearGradient>
<linearGradient id="paint15_linear_122_130" x1="59.5" y1="269" x2="59.5" y2="580.381" gradientUnits="userSpaceOnUse">
<stop stop-color="#F7DD43"/>
<stop offset="1" stop-color="#F7DD43" stop-opacity="0"/>
</linearGradient>
<linearGradient id="paint16_linear_122_130" x1="59.5" y1="269" x2="59.5" y2="580.381" gradientUnits="userSpaceOnUse">
<stop stop-color="#F7DD43"/>
<stop offset="1" stop-color="#F7DD43" stop-opacity="0"/>
</linearGradient>
<linearGradient id="paint17_linear_122_130" x1="59.5" y1="269" x2="59.5" y2="580.381" gradientUnits="userSpaceOnUse">
<stop stop-color="#F7DD43"/>
<stop offset="1" stop-color="#F7DD43" stop-opacity="0"/>
</linearGradient>
<linearGradient id="paint18_linear_122_130" x1="59.5" y1="269" x2="59.5" y2="580.381" gradientUnits="userSpaceOnUse">
<stop stop-color="#F7DD43"/>
<stop offset="1" stop-color="#F7DD43" stop-opacity="0"/>
</linearGradient>
<linearGradient id="paint19_linear_122_130" x1="59.5" y1="269" x2="59.5" y2="580.381" gradientUnits="userSpaceOnUse">
<stop stop-color="#F7DD43"/>
<stop offset="1" stop-color="#F7DD43" stop-opacity="0"/>
</linearGradient>
<linearGradient id="paint20_linear_122_130" x1="59.5" y1="269" x2="59.5" y2="580.381" gradientUnits="userSpaceOnUse">
<stop stop-color="#F7DD43"/>
<stop offset="1" stop-color="#F7DD43" stop-opacity="0"/>
</linearGradient>
<linearGradient id="paint21_linear_122_130" x1="59.5" y1="269" x2="59.5" y2="580.381" gradientUnits="userSpaceOnUse">
<stop stop-color="#F7DD43"/>
<stop offset="1" stop-color="#F7DD43" stop-opacity="0"/>
</linearGradient>
<linearGradient id="paint22_linear_122_130" x1="59.5" y1="269" x2="59.5" y2="580.381" gradientUnits="userSpaceOnUse">
<stop stop-color="#F7DD43"/>
<stop offset="1" stop-color="#F7DD43" stop-opacity="0"/>
</linearGradient>
<linearGradient id="paint23_linear_122_130" x1="59.5" y1="269" x2="59.5" y2="580.381" gradientUnits="userSpaceOnUse">
<stop stop-color="#F7DD43"/>
<stop offset="1" stop-color="#F7DD43" stop-opacity="0"/>
</linearGradient>
<linearGradient id="paint24_linear_122_130" x1="59.5" y1="269" x2="59.5" y2="580.381" gradientUnits="userSpaceOnUse">
<stop stop-color="#F7DD43"/>
<stop offset="1" stop-color="#F7DD43" stop-opacity="0"/>
</linearGradient>
<linearGradient id="paint25_linear_122_130" x1="59.5" y1="269" x2="59.5" y2="580.381" gradientUnits="userSpaceOnUse">
<stop stop-color="#F7DD43"/>
<stop offset="1" stop-color="#F7DD43" stop-opacity="0"/>
</linearGradient>
<linearGradient id="paint26_linear_122_130" x1="59.5" y1="269" x2="59.5" y2="580.381" gradientUnits="userSpaceOnUse">
<stop stop-color="#F7DD43"/>
<stop offset="1" stop-color="#F7DD43" stop-opacity="0"/>
</linearGradient>
<linearGradient id="paint27_linear_122_130" x1="59.5" y1="269" x2="59.5" y2="580.381" gradientUnits="userSpaceOnUse">
<stop stop-color="#F7DD43"/>
<stop offset="1" stop-color="#F7DD43" stop-opacity="0"/>
</linearGradient>
<linearGradient id="paint28_linear_122_130" x1="59.5" y1="269" x2="59.5" y2="580.381" gradientUnits="userSpaceOnUse">
<stop stop-color="#F7DD43"/>
<stop offset="1" stop-color="#F7DD43" stop-opacity="0"/>
</linearGradient>
<linearGradient id="paint29_linear_122_130" x1="59.5" y1="269" x2="59.5" y2="580.381" gradientUnits="userSpaceOnUse">
<stop stop-color="#F7DD43"/>
<stop offset="1" stop-color="#F7DD43" stop-opacity="0"/>
</linearGradient>
<linearGradient id="paint30_linear_122_130" x1="59.5" y1="269" x2="59.5" y2="580.381" gradientUnits="userSpaceOnUse">
<stop stop-color="#F7DD43"/>
<stop offset="1" stop-color="#F7DD43" stop-opacity="0"/>
</linearGradient>
<linearGradient id="paint31_linear_122_130" x1="59.5" y1="269" x2="59.5" y2="580.381" gradientUnits="userSpaceOnUse">
<stop stop-color="#F7DD43"/>
<stop offset="1" stop-color="#F7DD43" stop-opacity="0"/>
</linearGradient>
<linearGradient id="paint32_linear_122_130" x1="59.5" y1="269" x2="59.5" y2="580.381" gradientUnits="userSpaceOnUse">
<stop stop-color="#F7DD43"/>
<stop offset="1" stop-color="#F7DD43" stop-opacity="0"/>
</linearGradient>
<linearGradient id="paint33_linear_122_130" x1="59.5" y1="269" x2="59.5" y2="580.381" gradientUnits="userSpaceOnUse">
<stop stop-color="#F7DD43"/>
<stop offset="1" stop-color="#F7DD43" stop-opacity="0"/>
</linearGradient>
<linearGradient id="paint34_linear_122_130" x1="59.5" y1="269" x2="59.5" y2="580.381" gradientUnits="userSpaceOnUse">
<stop stop-color="#F7DD43"/>
<stop offset="1" stop-color="#F7DD43" stop-opacity="0"/>
</linearGradient>
<linearGradient id="paint35_linear_122_130" x1="59.5" y1="269" x2="59.5" y2="580.381" gradientUnits="userSpaceOnUse">
<stop stop-color="#F7DD43"/>
<stop offset="1" stop-color="#F7DD43" stop-opacity="0"/>
</linearGradient>
<linearGradient id="paint36_linear_122_130" x1="59.5" y1="269" x2="59.5" y2="580.381" gradientUnits="userSpaceOnUse">
<stop stop-color="#F7DD43"/>
<stop offset="1" stop-color="#F7DD43" stop-opacity="0"/>
</linearGradient>
<linearGradient id="paint37_linear_122_130" x1="59.5" y1="269" x2="59.5" y2="580.381" gradientUnits="userSpaceOnUse">
<stop stop-color="#F7DD43"/>
<stop offset="1" stop-color="#F7DD43" stop-opacity="0"/>
</linearGradient>
<linearGradient id="paint38_linear_122_130" x1="59.5" y1="269" x2="59.5" y2="580.381" gradientUnits="userSpaceOnUse">
<stop stop-color="#F7DD43"/>
<stop offset="1" stop-color="#F7DD43" stop-opacity="0"/>
</linearGradient>
<linearGradient id="paint39_linear_122_130" x1="59.5" y1="269" x2="59.5" y2="580.381" gradientUnits="userSpaceOnUse">
<stop stop-color="#F7DD43"/>
<stop offset="1" stop-color="#F7DD43" stop-opacity="0"/>
</linearGradient>
<linearGradient id="paint40_linear_122_130" x1="59.5" y1="269" x2="59.5" y2="580.381" gradientUnits="userSpaceOnUse">
<stop stop-color="#F7DD43"/>
<stop offset="1" stop-color="#F7DD43" stop-opacity="0"/>
</linearGradient>
<linearGradient id="paint41_linear_122_130" x1="59.5" y1="269" x2="59.5" y2="580.381" gradientUnits="userSpaceOnUse">
<stop stop-color="#F7DD43"/>
<stop offset="1" stop-color="#F7DD43" stop-opacity="0"/>
</linearGradient>
<linearGradient id="paint42_linear_122_130" x1="59.5" y1="269" x2="59.5" y2="580.381" gradientUnits="userSpaceOnUse">
<stop stop-color="#F7DD43"/>
<stop offset="1" stop-color="#F7DD43" stop-opacity="0"/>
</linearGradient>
<linearGradient id="paint43_linear_122_130" x1="59.5" y1="269" x2="59.5" y2="580.381" gradientUnits="userSpaceOnUse">
<stop stop-color="#F7DD43"/>
<stop offset="1" stop-color="#F7DD43" stop-opacity="0"/>
</linearGradient>
<linearGradient id="paint44_linear_122_130" x1="59.5" y1="269" x2="59.5" y2="580.381" gradientUnits="userSpaceOnUse">
<stop stop-color="#F7DD43"/>
<stop offset="1" stop-color="#F7DD43" stop-opacity="0"/>
</linearGradient>
<linearGradient id="paint45_linear_122_130" x1="59.5" y1="269" x2="59.5" y2="580.381" gradientUnits="userSpaceOnUse">
<stop stop-color="#F7DD43"/>
<stop offset="1" stop-color="#F7DD43" stop-opacity="0"/>
</linearGradient>
<linearGradient id="paint46_linear_122_130" x1="59.5" y1="269" x2="59.5" y2="580.381" gradientUnits="userSpaceOnUse">
<stop stop-color="#F7DD43"/>
<stop offset="1" stop-color="#F7DD43" stop-opacity="0"/>
</linearGradient>
<linearGradient id="paint47_linear_122_130" x1="945.5" y1="-31" x2="945.5" y2="267.818" gradientUnits="userSpaceOnUse">
<stop stop-color="#F7DD43"/>
<stop offset="1" stop-color="#F7DD43" stop-opacity="0"/>
</linearGradient>
<linearGradient id="paint48_linear_122_130" x1="945.5" y1="-31" x2="945.5" y2="267.818" gradientUnits="userSpaceOnUse">
<stop stop-color="#F7DD43"/>
<stop offset="1" stop-color="#F7DD43" stop-opacity="0"/>
</linearGradient>
<linearGradient id="paint49_linear_122_130" x1="945.5" y1="-31" x2="945.5" y2="267.818" gradientUnits="userSpaceOnUse">
<stop stop-color="#F7DD43"/>
<stop offset="1" stop-color="#F7DD43" stop-opacity="0"/>
</linearGradient>
<linearGradient id="paint50_linear_122_130" x1="945.5" y1="-31" x2="945.5" y2="267.818" gradientUnits="userSpaceOnUse">
<stop stop-color="#F7DD43"/>
<stop offset="1" stop-color="#F7DD43" stop-opacity="0"/>
</linearGradient>
<linearGradient id="paint51_linear_122_130" x1="945.5" y1="-31" x2="945.5" y2="267.818" gradientUnits="userSpaceOnUse">
<stop stop-color="#F7DD43"/>
<stop offset="1" stop-color="#F7DD43" stop-opacity="0"/>
</linearGradient>
<linearGradient id="paint52_linear_122_130" x1="945.5" y1="-31" x2="945.5" y2="267.818" gradientUnits="userSpaceOnUse">
<stop stop-color="#F7DD43"/>
<stop offset="1" stop-color="#F7DD43" stop-opacity="0"/>
</linearGradient>
<linearGradient id="paint53_linear_122_130" x1="945.5" y1="-31" x2="945.5" y2="267.818" gradientUnits="userSpaceOnUse">
<stop stop-color="#F7DD43"/>
<stop offset="1" stop-color="#F7DD43" stop-opacity="0"/>
</linearGradient>
<linearGradient id="paint54_linear_122_130" x1="945.5" y1="-31" x2="945.5" y2="267.818" gradientUnits="userSpaceOnUse">
<stop stop-color="#F7DD43"/>
<stop offset="1" stop-color="#F7DD43" stop-opacity="0"/>
</linearGradient>
<linearGradient id="paint55_linear_122_130" x1="945.5" y1="-31" x2="945.5" y2="267.818" gradientUnits="userSpaceOnUse">
<stop stop-color="#F7DD43"/>
<stop offset="1" stop-color="#F7DD43" stop-opacity="0"/>
</linearGradient>
<linearGradient id="paint56_linear_122_130" x1="945.5" y1="-31" x2="945.5" y2="267.818" gradientUnits="userSpaceOnUse">
<stop stop-color="#F7DD43"/>
<stop offset="1" stop-color="#F7DD43" stop-opacity="0"/>
</linearGradient>
<linearGradient id="paint57_linear_122_130" x1="945.5" y1="-31" x2="945.5" y2="267.818" gradientUnits="userSpaceOnUse">
<stop stop-color="#F7DD43"/>
<stop offset="1" stop-color="#F7DD43" stop-opacity="0"/>
</linearGradient>
<linearGradient id="paint58_linear_122_130" x1="945.5" y1="-31" x2="945.5" y2="267.818" gradientUnits="userSpaceOnUse">
<stop stop-color="#F7DD43"/>
<stop offset="1" stop-color="#F7DD43" stop-opacity="0"/>
</linearGradient>
<linearGradient id="paint59_linear_122_130" x1="945.5" y1="-31" x2="945.5" y2="267.818" gradientUnits="userSpaceOnUse">
<stop stop-color="#F7DD43"/>
<stop offset="1" stop-color="#F7DD43" stop-opacity="0"/>
</linearGradient>
<linearGradient id="paint60_linear_122_130" x1="945.5" y1="-31" x2="945.5" y2="267.818" gradientUnits="userSpaceOnUse">
<stop stop-color="#F7DD43"/>
<stop offset="1" stop-color="#F7DD43" stop-opacity="0"/>
</linearGradient>
<linearGradient id="paint61_linear_122_130" x1="945.5" y1="-31" x2="945.5" y2="267.818" gradientUnits="userSpaceOnUse">
<stop stop-color="#F7DD43"/>
<stop offset="1" stop-color="#F7DD43" stop-opacity="0"/>
</linearGradient>
<linearGradient id="paint62_linear_122_130" x1="945.5" y1="-31" x2="945.5" y2="267.818" gradientUnits="userSpaceOnUse">
<stop stop-color="#F7DD43"/>
<stop offset="1" stop-color="#F7DD43" stop-opacity="0"/>
</linearGradient>
<linearGradient id="paint63_linear_122_130" x1="945.5" y1="-31" x2="945.5" y2="267.818" gradientUnits="userSpaceOnUse">
<stop stop-color="#F7DD43"/>
<stop offset="1" stop-color="#F7DD43" stop-opacity="0"/>
</linearGradient>
<linearGradient id="paint64_linear_122_130" x1="945.5" y1="-31" x2="945.5" y2="267.818" gradientUnits="userSpaceOnUse">
<stop stop-color="#F7DD43"/>
<stop offset="1" stop-color="#F7DD43" stop-opacity="0"/>
</linearGradient>
<linearGradient id="paint65_linear_122_130" x1="945.5" y1="-31" x2="945.5" y2="267.818" gradientUnits="userSpaceOnUse">
<stop stop-color="#F7DD43"/>
<stop offset="1" stop-color="#F7DD43" stop-opacity="0"/>
</linearGradient>
<linearGradient id="paint66_linear_122_130" x1="945.5" y1="-31" x2="945.5" y2="267.818" gradientUnits="userSpaceOnUse">
<stop stop-color="#F7DD43"/>
<stop offset="1" stop-color="#F7DD43" stop-opacity="0"/>
</linearGradient>
<linearGradient id="paint67_linear_122_130" x1="945.5" y1="-31" x2="945.5" y2="267.818" gradientUnits="userSpaceOnUse">
<stop stop-color="#F7DD43"/>
<stop offset="1" stop-color="#F7DD43" stop-opacity="0"/>
</linearGradient>
<linearGradient id="paint68_linear_122_130" x1="945.5" y1="-31" x2="945.5" y2="267.818" gradientUnits="userSpaceOnUse">
<stop stop-color="#F7DD43"/>
<stop offset="1" stop-color="#F7DD43" stop-opacity="0"/>
</linearGradient>
<linearGradient id="paint69_linear_122_130" x1="945.5" y1="-31" x2="945.5" y2="267.818" gradientUnits="userSpaceOnUse">
<stop stop-color="#F7DD43"/>
<stop offset="1" stop-color="#F7DD43" stop-opacity="0"/>
</linearGradient>
<linearGradient id="paint70_linear_122_130" x1="945.5" y1="-31" x2="945.5" y2="267.818" gradientUnits="userSpaceOnUse">
<stop stop-color="#F7DD43"/>
<stop offset="1" stop-color="#F7DD43" stop-opacity="0"/>
</linearGradient>
<linearGradient id="paint71_linear_122_130" x1="945.5" y1="-31" x2="945.5" y2="267.818" gradientUnits="userSpaceOnUse">
<stop stop-color="#F7DD43"/>
<stop offset="1" stop-color="#F7DD43" stop-opacity="0"/>
</linearGradient>
<linearGradient id="paint72_linear_122_130" x1="945.5" y1="-31" x2="945.5" y2="267.818" gradientUnits="userSpaceOnUse">
<stop stop-color="#F7DD43"/>
<stop offset="1" stop-color="#F7DD43" stop-opacity="0"/>
</linearGradient>
<linearGradient id="paint73_linear_122_130" x1="945.5" y1="-31" x2="945.5" y2="267.818" gradientUnits="userSpaceOnUse">
<stop stop-color="#F7DD43"/>
<stop offset="1" stop-color="#F7DD43" stop-opacity="0"/>
</linearGradient>
<linearGradient id="paint74_linear_122_130" x1="945.5" y1="-31" x2="945.5" y2="267.818" gradientUnits="userSpaceOnUse">
<stop stop-color="#F7DD43"/>
<stop offset="1" stop-color="#F7DD43" stop-opacity="0"/>
</linearGradient>
<linearGradient id="paint75_linear_122_130" x1="945.5" y1="-31" x2="945.5" y2="267.818" gradientUnits="userSpaceOnUse">
<stop stop-color="#F7DD43"/>
<stop offset="1" stop-color="#F7DD43" stop-opacity="0"/>
</linearGradient>
<linearGradient id="paint76_linear_122_130" x1="945.5" y1="-31" x2="945.5" y2="267.818" gradientUnits="userSpaceOnUse">
<stop stop-color="#F7DD43"/>
<stop offset="1" stop-color="#F7DD43" stop-opacity="0"/>
</linearGradient>
<linearGradient id="paint77_linear_122_130" x1="945.5" y1="-31" x2="945.5" y2="267.818" gradientUnits="userSpaceOnUse">
<stop stop-color="#F7DD43"/>
<stop offset="1" stop-color="#F7DD43" stop-opacity="0"/>
</linearGradient>
<linearGradient id="paint78_linear_122_130" x1="945.5" y1="-31" x2="945.5" y2="267.818" gradientUnits="userSpaceOnUse">
<stop stop-color="#F7DD43"/>
<stop offset="1" stop-color="#F7DD43" stop-opacity="0"/>
</linearGradient>
<linearGradient id="paint79_linear_122_130" x1="945.5" y1="-31" x2="945.5" y2="267.818" gradientUnits="userSpaceOnUse">
<stop stop-color="#F7DD43"/>
<stop offset="1" stop-color="#F7DD43" stop-opacity="0"/>
</linearGradient>
<linearGradient id="paint80_linear_122_130" x1="945.5" y1="-31" x2="945.5" y2="267.818" gradientUnits="userSpaceOnUse">
<stop stop-color="#F7DD43"/>
<stop offset="1" stop-color="#F7DD43" stop-opacity="0"/>
</linearGradient>
<linearGradient id="paint81_linear_122_130" x1="945.5" y1="-31" x2="945.5" y2="267.818" gradientUnits="userSpaceOnUse">
<stop stop-color="#F7DD43"/>
<stop offset="1" stop-color="#F7DD43" stop-opacity="0"/>
</linearGradient>
<linearGradient id="paint82_linear_122_130" x1="945.5" y1="-31" x2="945.5" y2="267.818" gradientUnits="userSpaceOnUse">
<stop stop-color="#F7DD43"/>
<stop offset="1" stop-color="#F7DD43" stop-opacity="0"/>
</linearGradient>
<linearGradient id="paint83_linear_122_130" x1="945.5" y1="-31" x2="945.5" y2="267.818" gradientUnits="userSpaceOnUse">
<stop stop-color="#F7DD43"/>
<stop offset="1" stop-color="#F7DD43" stop-opacity="0"/>
</linearGradient>
<linearGradient id="paint84_linear_122_130" x1="945.5" y1="-31" x2="945.5" y2="267.818" gradientUnits="userSpaceOnUse">
<stop stop-color="#F7DD43"/>
<stop offset="1" stop-color="#F7DD43" stop-opacity="0"/>
</linearGradient>
<linearGradient id="paint85_linear_122_130" x1="945.5" y1="-31" x2="945.5" y2="267.818" gradientUnits="userSpaceOnUse">
<stop stop-color="#F7DD43"/>
<stop offset="1" stop-color="#F7DD43" stop-opacity="0"/>
</linearGradient>
<linearGradient id="paint86_linear_122_130" x1="945.5" y1="-31" x2="945.5" y2="267.818" gradientUnits="userSpaceOnUse">
<stop stop-color="#F7DD43"/>
<stop offset="1" stop-color="#F7DD43" stop-opacity="0"/>
</linearGradient>
<linearGradient id="paint87_linear_122_130" x1="945.5" y1="-31" x2="945.5" y2="267.818" gradientUnits="userSpaceOnUse">
<stop stop-color="#F7DD43"/>
<stop offset="1" stop-color="#F7DD43" stop-opacity="0"/>
</linearGradient>
<linearGradient id="paint88_linear_122_130" x1="945.5" y1="-31" x2="945.5" y2="267.818" gradientUnits="userSpaceOnUse">
<stop stop-color="#F7DD43"/>
<stop offset="1" stop-color="#F7DD43" stop-opacity="0"/>
</linearGradient>
<linearGradient id="paint89_linear_122_130" x1="945.5" y1="-31" x2="945.5" y2="267.818" gradientUnits="userSpaceOnUse">
<stop stop-color="#F7DD43"/>
<stop offset="1" stop-color="#F7DD43" stop-opacity="0"/>
</linearGradient>
<linearGradient id="paint90_linear_122_130" x1="945.5" y1="-31" x2="945.5" y2="267.818" gradientUnits="userSpaceOnUse">
<stop stop-color="#F7DD43"/>
<stop offset="1" stop-color="#F7DD43" stop-opacity="0"/>
</linearGradient>
<linearGradient id="paint91_linear_122_130" x1="945.5" y1="-31" x2="945.5" y2="267.818" gradientUnits="userSpaceOnUse">
<stop stop-color="#F7DD43"/>
<stop offset="1" stop-color="#F7DD43" stop-opacity="0"/>
</linearGradient>
<linearGradient id="paint92_linear_122_130" x1="945.5" y1="-31" x2="945.5" y2="267.818" gradientUnits="userSpaceOnUse">
<stop stop-color="#F7DD43"/>
<stop offset="1" stop-color="#F7DD43" stop-opacity="0"/>
</linearGradient>
<linearGradient id="paint93_linear_122_130" x1="945.5" y1="-31" x2="945.5" y2="267.818" gradientUnits="userSpaceOnUse">
<stop stop-color="#F7DD43"/>
<stop offset="1" stop-color="#F7DD43" stop-opacity="0"/>
</linearGradient>
<clipPath id="clip0_122_130">
<rect width="1024" height="753" fill="white"/>
</clipPath>
</defs>
</svg>
